<svg width="961" height="295" viewBox="0 0 961 295" fill="none" xmlns="http://www.w3.org/2000/svg">
<path d="M269.677 241.931C228.443 247.085 110.757 235.488 57.0674 229.045C74.2479 203.274 127.937 164.62 179.479 190.389C237.243 219.269 301.89 229.045 327.661 229.045C325.514 231.193 310.91 236.776 269.677 241.931Z" fill="#AAE0E2"/>
<path d="M379.203 209.72C366.317 217.16 309.072 247.638 212.186 188.131C138.462 142.85 81.0024 196.043 57.0674 229.045C108.609 177.505 140.823 205.756 218.135 235.491C298.204 266.287 392.088 202.281 379.203 209.72Z" fill="#2694A3"/>
<path d="M207.238 151.353C138.354 115.584 74.3149 178.248 59.3198 218.844C85.1013 187.13 99.6583 182.642 121.496 171.065C185.923 151.737 215.255 190.4 269.679 209.721C317.516 226.704 355.676 213.414 392.917 199.968C303.957 213.416 294.388 196.607 207.238 151.353Z" fill="#44C3C0"/>
<path d="M88.8708 169.789C92.6418 166.096 96.5314 162.62 100.548 159.405C129.609 134.335 143.246 129.344 163.445 129.343C186.025 129.341 210.907 144.342 221.781 152.562C215.756 148.059 193.139 136.402 164.493 135.873C139.998 135.42 118.944 144.678 100.548 159.405C96.9112 162.542 93.0333 165.993 88.8708 169.789Z" fill="#77C6C7"/>
<path d="M247.782 50.4888C187.319 50.4888 131.647 114.06 104.457 150.584C127.728 133.006 159.982 100.17 227.91 150.584C301.962 205.542 349.418 207.237 416.125 180.498C349.572 193.062 322.917 183.663 313.518 178.887C300.375 172.207 253.695 139.619 276.217 103.334C291.485 78.7353 319.395 89.0689 328.777 99.4567C321.421 59.107 282.717 50.4888 247.782 50.4888Z" fill="#24486A"/>
<path d="M358.297 182.872C352.034 184.442 318.935 176.231 303.702 167.638C320.58 168.311 334.962 168.19 352.298 160.619C367.577 153.946 379.803 165.993 380.51 170.625C362.683 164.29 357.504 174.464 358.297 182.872Z" fill="#9DDADB"/>
<path d="M922.075 193.829H905.521C904.819 195.523 904.219 197.032 903.723 198.355C903.227 199.636 902.814 200.752 902.483 201.703C902.194 202.653 901.987 203.459 901.863 204.121C901.739 204.782 901.677 205.319 901.677 205.733C901.677 206.89 902.049 207.696 902.793 208.151C903.537 208.564 904.777 208.771 906.513 208.771V211.127H891.447V208.771C892.398 208.647 893.204 208.481 893.865 208.275C894.568 208.068 895.167 207.779 895.663 207.407C896.201 207.035 896.655 206.559 897.027 205.981C897.441 205.361 897.833 204.617 898.205 203.749L914.325 163.387H916.991L931.065 198.355C932.016 200.669 932.843 202.529 933.545 203.935C934.248 205.299 934.93 206.332 935.591 207.035C936.253 207.737 936.955 208.192 937.699 208.399C938.485 208.605 939.415 208.709 940.489 208.709V211.127H920.277V208.709C922.468 208.709 923.977 208.502 924.803 208.089C925.63 207.675 926.043 206.993 926.043 206.043C926.043 205.629 926.023 205.257 925.981 204.927C925.94 204.555 925.857 204.162 925.733 203.749C925.651 203.335 925.506 202.881 925.299 202.385C925.134 201.847 924.907 201.227 924.617 200.525L922.075 193.829ZM906.761 190.729H920.897L914.015 172.439L906.761 190.729Z" fill="#1A4F63"/>
<path d="M884.828 163.387H886.564L887.122 177.647H884.828C883.919 174.009 882.162 171.157 879.558 169.091C876.954 167.024 873.813 165.991 870.134 165.991C867.613 165.991 865.36 166.487 863.376 167.479C861.392 168.471 859.718 169.897 858.354 171.757C856.99 173.617 855.936 175.89 855.192 178.577C854.489 181.263 854.138 184.301 854.138 187.691C854.138 194.345 855.523 199.471 858.292 203.067C861.061 206.621 865.071 208.399 870.32 208.399C878.297 208.399 883.423 204.162 885.696 195.689H888.238V211.127H886.068L884.642 206.229C880.302 209.907 875.053 211.747 868.894 211.747C865.381 211.747 862.198 211.189 859.346 210.073C856.535 208.957 854.117 207.386 852.092 205.361C850.108 203.294 848.558 200.793 847.442 197.859C846.367 194.924 845.83 191.659 845.83 188.063C845.83 184.301 846.409 180.871 847.566 177.771C848.723 174.671 850.335 172.005 852.402 169.773C854.51 167.541 857.011 165.825 859.904 164.627C862.839 163.387 866.063 162.767 869.576 162.767C872.056 162.767 874.391 163.118 876.582 163.821C878.773 164.523 881.149 165.66 883.712 167.231L884.828 163.387Z" fill="#1A4F63"/>
<path d="M834.832 175.353C834.832 178.659 833.84 181.408 831.856 183.599C829.872 185.789 826.71 187.257 822.37 188.001L836.072 204.493C837.188 205.857 838.407 206.849 839.73 207.469C841.094 208.047 842.706 208.481 844.566 208.771V211.127H832.6L817.41 191.659C816.873 190.956 816.356 190.398 815.86 189.985C815.406 189.571 814.909 189.261 814.372 189.055C813.876 188.807 813.277 188.662 812.574 188.621C811.913 188.538 811.107 188.497 810.156 188.497V201.393C810.156 202.922 810.239 204.183 810.404 205.175C810.611 206.125 811.003 206.869 811.582 207.407C812.202 207.944 813.07 208.316 814.186 208.523C815.343 208.688 816.852 208.771 818.712 208.771V211.127H796.826V208.771C798.273 208.729 799.43 208.605 800.298 208.399C801.207 208.192 801.91 207.841 802.406 207.345C802.902 206.849 803.233 206.146 803.398 205.237C803.563 204.327 803.646 203.149 803.646 201.703V172.811C803.646 171.364 803.563 170.207 803.398 169.339C803.274 168.429 802.985 167.727 802.53 167.231C802.117 166.693 801.497 166.342 800.67 166.177C799.843 165.97 798.769 165.825 797.446 165.743V163.387H816.914C822.618 163.387 827.02 164.441 830.12 166.549C833.262 168.657 834.832 171.591 834.832 175.353ZM810.156 185.397H814.558C818.691 185.397 821.75 184.653 823.734 183.165C825.759 181.635 826.772 179.135 826.772 175.663C826.772 172.315 825.966 169.917 824.354 168.471C822.783 167.024 820.303 166.301 816.914 166.301H811.21C810.508 166.301 810.156 166.652 810.156 167.355V185.397Z" fill="#1A4F63"/>
<path d="M765.479 162.767C769.117 162.767 772.506 163.407 775.647 164.689C778.789 165.97 781.517 167.727 783.832 169.959C786.146 172.191 787.965 174.815 789.288 177.833C790.61 180.85 791.272 184.115 791.272 187.629C791.272 190.977 790.589 194.118 789.225 197.053C787.903 199.987 786.084 202.55 783.77 204.741C781.455 206.89 778.727 208.605 775.586 209.887C772.444 211.127 769.075 211.747 765.479 211.747C761.883 211.747 758.515 211.127 755.374 209.887C752.232 208.605 749.504 206.89 747.19 204.741C744.875 202.55 743.036 199.987 741.672 197.053C740.349 194.118 739.688 190.977 739.688 187.629C739.688 184.115 740.349 180.85 741.672 177.833C742.994 174.815 744.813 172.191 747.128 169.959C749.442 167.727 752.17 165.97 755.311 164.689C758.453 163.407 761.842 162.767 765.479 162.767ZM765.479 208.337C768.207 208.337 770.646 207.861 772.796 206.911C774.986 205.96 776.846 204.596 778.376 202.819C779.946 201.041 781.145 198.892 781.971 196.371C782.798 193.808 783.212 190.956 783.212 187.815C783.212 184.508 782.798 181.532 781.971 178.887C781.145 176.2 779.967 173.927 778.438 172.067C776.908 170.165 775.048 168.719 772.858 167.727C770.667 166.693 768.207 166.177 765.479 166.177C762.751 166.177 760.292 166.693 758.102 167.727C755.911 168.719 754.051 170.165 752.522 172.067C750.992 173.927 749.814 176.2 748.988 178.887C748.161 181.532 747.747 184.508 747.747 187.815C747.747 190.956 748.161 193.808 748.988 196.371C749.814 198.892 750.992 201.041 752.522 202.819C754.051 204.596 755.911 205.96 758.102 206.911C760.292 207.861 762.751 208.337 765.479 208.337Z" fill="#1A4F63"/>
<path d="M724.023 211.747L694.573 172.935H694.325V199.409C694.325 201.475 694.387 203.108 694.511 204.307C694.677 205.505 694.966 206.435 695.379 207.097C695.834 207.758 696.454 208.192 697.239 208.399C698.066 208.605 699.14 208.729 700.463 208.771V211.127H683.785V208.771C685.232 208.729 686.389 208.605 687.257 208.399C688.166 208.151 688.869 207.717 689.365 207.097C689.861 206.477 690.192 205.609 690.357 204.493C690.522 203.335 690.605 201.785 690.605 199.843V174.671C690.605 172.935 690.522 171.509 690.357 170.393C690.233 169.235 689.944 168.326 689.489 167.665C689.076 167.003 688.456 166.549 687.629 166.301C686.802 166.011 685.728 165.825 684.405 165.743V163.387H696.681L723.775 199.533H724.023V175.105C724.023 173.079 723.94 171.467 723.775 170.269C723.651 169.029 723.362 168.078 722.907 167.417C722.494 166.755 721.874 166.321 721.047 166.115C720.262 165.908 719.208 165.784 717.885 165.743V163.387H734.563V165.743C733.116 165.784 731.938 165.929 731.029 166.177C730.161 166.383 729.479 166.797 728.983 167.417C728.487 168.037 728.156 168.925 727.991 170.083C727.826 171.24 727.743 172.769 727.743 174.671V211.747H724.023Z" fill="#1A4F63"/>
<path d="M652.129 184.901C654.361 184.901 656.221 184.777 657.709 184.529C659.238 184.239 660.437 183.805 661.305 183.227C662.214 182.648 662.855 181.904 663.227 180.995C663.64 180.085 663.847 179.011 663.847 177.771H666.017V194.697H663.847C663.847 193.457 663.661 192.382 663.289 191.473C662.958 190.563 662.338 189.819 661.429 189.241C660.561 188.621 659.362 188.166 657.833 187.877C656.345 187.546 654.443 187.381 652.129 187.381V201.393C652.129 202.757 652.294 203.893 652.625 204.803C652.955 205.671 653.514 206.394 654.299 206.973C655.126 207.51 656.2 207.903 657.523 208.151C658.846 208.357 660.478 208.461 662.421 208.461C664.612 208.461 666.472 208.316 668.001 208.027C669.53 207.696 670.812 207.159 671.845 206.415C672.878 205.671 673.705 204.699 674.325 203.501C674.945 202.261 675.461 200.731 675.875 198.913H678.231L677.301 211.127H638.799V208.771C640.245 208.729 641.403 208.605 642.271 208.399C643.18 208.192 643.883 207.841 644.379 207.345C644.875 206.849 645.206 206.146 645.371 205.237C645.536 204.327 645.619 203.149 645.619 201.703V172.811C645.619 171.364 645.536 170.207 645.371 169.339C645.247 168.429 644.958 167.727 644.503 167.231C644.09 166.693 643.47 166.342 642.643 166.177C641.816 165.97 640.742 165.825 639.419 165.743V163.387H675.255L675.813 174.299H673.643C673.395 172.645 672.981 171.302 672.403 170.269C671.865 169.194 671.101 168.347 670.109 167.727C669.158 167.107 667.939 166.673 666.451 166.425C664.963 166.177 663.165 166.053 661.057 166.053H653.183C652.48 166.053 652.129 166.404 652.129 167.107V184.901Z" fill="#1A4F63"/>
<path d="M602.539 200.029L618.659 163.387H632.547V165.743C631.224 165.784 630.149 165.949 629.323 166.239C628.537 166.528 627.917 167.024 627.463 167.727C627.049 168.388 626.76 169.318 626.595 170.517C626.471 171.715 626.409 173.245 626.409 175.105V199.409C626.409 201.475 626.491 203.108 626.657 204.307C626.822 205.505 627.132 206.435 627.587 207.097C628.083 207.758 628.765 208.192 629.633 208.399C630.542 208.605 631.72 208.729 633.167 208.771V211.127H613.079V208.771C614.525 208.729 615.683 208.605 616.551 208.399C617.46 208.151 618.163 207.717 618.659 207.097C619.155 206.477 619.485 205.609 619.651 204.493C619.816 203.335 619.899 201.785 619.899 199.843V171.075H619.279L601.175 211.747H599.811L582.017 171.075H581.769V199.409C581.769 201.475 581.851 203.108 582.017 204.307C582.182 205.505 582.492 206.435 582.947 207.097C583.443 207.758 584.125 208.192 584.993 208.399C585.902 208.605 587.08 208.729 588.527 208.771V211.127H571.229V208.771C572.675 208.729 573.833 208.605 574.701 208.399C575.61 208.151 576.313 207.717 576.809 207.097C577.305 206.477 577.635 205.609 577.801 204.493C577.966 203.335 578.049 201.785 578.049 199.843V174.671C578.049 172.935 577.966 171.509 577.801 170.393C577.677 169.235 577.387 168.326 576.933 167.665C576.519 167.003 575.899 166.549 575.073 166.301C574.246 166.011 573.171 165.825 571.849 165.743V163.387H586.667L602.291 200.029H602.539Z" fill="#1A4F63"/>
<path d="M521.771 184.901C524.003 184.901 525.863 184.777 527.351 184.529C528.881 184.239 530.079 183.805 530.947 183.227C531.857 182.648 532.497 181.904 532.869 180.995C533.283 180.085 533.489 179.011 533.489 177.771H535.659V194.697H533.489C533.489 193.457 533.303 192.382 532.931 191.473C532.601 190.563 531.981 189.819 531.071 189.241C530.203 188.621 529.005 188.166 527.475 187.877C525.987 187.546 524.086 187.381 521.771 187.381V201.393C521.771 202.757 521.937 203.893 522.267 204.803C522.598 205.671 523.156 206.394 523.941 206.973C524.768 207.51 525.843 207.903 527.165 208.151C528.488 208.357 530.121 208.461 532.063 208.461C534.254 208.461 536.114 208.316 537.643 208.027C539.173 207.696 540.454 207.159 541.487 206.415C542.521 205.671 543.347 204.699 543.967 203.501C544.587 202.261 545.104 200.731 545.517 198.913H547.873L546.943 211.127H508.441V208.771C509.888 208.729 511.045 208.605 511.913 208.399C512.823 208.192 513.525 207.841 514.021 207.345C514.517 206.849 514.848 206.146 515.013 205.237C515.179 204.327 515.261 203.149 515.261 201.703V172.811C515.261 171.364 515.179 170.207 515.013 169.339C514.889 168.429 514.6 167.727 514.145 167.231C513.732 166.693 513.112 166.342 512.285 166.177C511.459 165.97 510.384 165.825 509.061 165.743V163.387H544.897L545.455 174.299H543.285C543.037 172.645 542.624 171.302 542.045 170.269C541.508 169.194 540.743 168.347 539.751 167.727C538.801 167.107 537.581 166.673 536.093 166.425C534.605 166.177 532.807 166.053 530.699 166.053H522.825C522.123 166.053 521.771 166.404 521.771 167.107V184.901Z" fill="#1A4F63"/>
<path d="M454 211.127V208.771C455.571 208.729 456.831 208.626 457.782 208.461C458.774 208.254 459.539 207.903 460.076 207.407C460.613 206.869 460.965 206.167 461.13 205.299C461.337 204.389 461.44 203.191 461.44 201.703V172.811C461.44 171.364 461.357 170.207 461.192 169.339C461.068 168.429 460.779 167.727 460.324 167.231C459.911 166.693 459.291 166.342 458.464 166.177C457.637 165.97 456.563 165.825 455.24 165.743V163.387H477.002C480.722 163.387 484.153 164.007 487.294 165.247C490.477 166.487 493.205 168.202 495.478 170.393C497.793 172.583 499.591 175.187 500.872 178.205C502.153 181.222 502.794 184.508 502.794 188.063C502.794 191.452 502.195 194.573 500.996 197.425C499.797 200.235 498.103 202.653 495.912 204.679C493.763 206.704 491.179 208.295 488.162 209.453C485.145 210.569 481.838 211.127 478.242 211.127H454ZM469.004 166.425C468.301 166.425 467.95 166.776 467.95 167.479V201.021C467.95 205.733 471.029 208.089 477.188 208.089C482.851 208.089 487.191 206.415 490.208 203.067C493.225 199.677 494.734 194.717 494.734 188.187C494.734 184.756 494.321 181.697 493.494 179.011C492.667 176.324 491.469 174.051 489.898 172.191C488.369 170.331 486.509 168.905 484.318 167.913C482.127 166.921 479.647 166.425 476.878 166.425H469.004Z" fill="#1A4F63"/>
<path d="M652.642 116.829H636.088C635.385 118.523 634.786 120.032 634.29 121.355C633.794 122.636 633.38 123.752 633.05 124.703C632.76 125.653 632.554 126.459 632.43 127.121C632.306 127.782 632.244 128.319 632.244 128.733C632.244 129.89 632.616 130.696 633.36 131.151C634.104 131.564 635.344 131.771 637.08 131.771V134.127H622.014V131.771C622.964 131.647 623.77 131.481 624.432 131.275C625.134 131.068 625.734 130.779 626.23 130.407C626.767 130.035 627.222 129.559 627.594 128.981C628.007 128.361 628.4 127.617 628.772 126.749L644.892 86.3867H647.558L661.632 121.355C662.582 123.669 663.409 125.529 664.112 126.935C664.814 128.299 665.496 129.332 666.158 130.035C666.819 130.737 667.522 131.192 668.266 131.399C669.051 131.605 669.981 131.709 671.056 131.709V134.127H650.844V131.709C653.034 131.709 654.543 131.502 655.37 131.089C656.196 130.675 656.61 129.993 656.61 129.043C656.61 128.629 656.589 128.257 656.548 127.927C656.506 127.555 656.424 127.162 656.3 126.749C656.217 126.335 656.072 125.881 655.866 125.385C655.7 124.847 655.473 124.227 655.184 123.525L652.642 116.829ZM637.328 113.729H651.464L644.582 95.4387L637.328 113.729Z" fill="#1A4F63"/>
<path d="M620.181 134.127H580.129V131.771C581.576 131.729 582.733 131.605 583.601 131.399C584.51 131.192 585.213 130.841 585.709 130.345C586.205 129.849 586.536 129.146 586.701 128.237C586.866 127.327 586.949 126.149 586.949 124.703V95.8107C586.949 94.3641 586.866 93.2067 586.701 92.3387C586.577 91.4294 586.288 90.7267 585.833 90.2307C585.42 89.6934 584.8 89.3421 583.973 89.1767C583.146 88.9701 582.072 88.8254 580.749 88.7427V86.3867H599.597V88.7427C598.274 88.7841 597.2 88.9081 596.373 89.1147C595.588 89.3214 594.968 89.6934 594.513 90.2307C594.1 90.7681 593.81 91.5121 593.645 92.4627C593.521 93.4134 593.459 94.6741 593.459 96.2447V122.967C593.459 124.703 593.624 126.129 593.955 127.245C594.327 128.319 594.926 129.167 595.753 129.787C596.621 130.365 597.758 130.779 599.163 131.027C600.568 131.233 602.346 131.337 604.495 131.337C606.851 131.337 608.835 131.213 610.447 130.965C612.059 130.675 613.402 130.2 614.477 129.539C615.593 128.836 616.461 127.885 617.081 126.687C617.742 125.447 618.3 123.855 618.755 121.913H621.111L620.181 134.127Z" fill="#1A4F63"/>
<path d="M575.134 134.127H535.082V131.771C536.529 131.729 537.686 131.605 538.554 131.399C539.463 131.192 540.166 130.841 540.662 130.345C541.158 129.849 541.489 129.146 541.654 128.237C541.819 127.327 541.902 126.149 541.902 124.703V95.8107C541.902 94.3641 541.819 93.2067 541.654 92.3387C541.53 91.4294 541.241 90.7267 540.786 90.2307C540.373 89.6934 539.753 89.3421 538.926 89.1767C538.099 88.9701 537.025 88.8254 535.702 88.7427V86.3867H554.55V88.7427C553.227 88.7841 552.153 88.9081 551.326 89.1147C550.541 89.3214 549.921 89.6934 549.466 90.2307C549.053 90.7681 548.763 91.5121 548.598 92.4627C548.474 93.4134 548.412 94.6741 548.412 96.2447V122.967C548.412 124.703 548.577 126.129 548.908 127.245C549.28 128.319 549.879 129.167 550.706 129.787C551.574 130.365 552.711 130.779 554.116 131.027C555.521 131.233 557.299 131.337 559.448 131.337C561.804 131.337 563.788 131.213 565.4 130.965C567.012 130.675 568.355 130.2 569.43 129.539C570.546 128.836 571.414 127.885 572.034 126.687C572.695 125.447 573.253 123.855 573.708 121.913H576.064L575.134 134.127Z" fill="#1A4F63"/>
<path d="M522.68 122.409C522.68 124.475 522.762 126.108 522.928 127.307C523.093 128.505 523.403 129.435 523.858 130.097C524.354 130.758 525.036 131.192 525.904 131.399C526.813 131.605 527.991 131.729 529.438 131.771V134.127H509.35V131.771C510.796 131.729 511.954 131.605 512.822 131.399C513.731 131.151 514.434 130.717 514.93 130.097C515.426 129.477 515.756 128.609 515.922 127.493C516.087 126.335 516.17 124.785 516.17 122.843V97.6707C516.17 95.9347 516.087 94.5087 515.922 93.3927C515.798 92.2354 515.508 91.3261 515.054 90.6647C514.64 90.0034 514.02 89.5487 513.194 89.3007C512.367 89.0114 511.292 88.8254 509.97 88.7427V86.3867H528.818V88.7427C527.495 88.7841 526.42 88.9494 525.594 89.2387C524.808 89.5281 524.188 90.0241 523.734 90.7267C523.32 91.3881 523.031 92.3181 522.866 93.5167C522.742 94.7154 522.68 96.2447 522.68 98.1047V122.409Z" fill="#1A4F63"/>
<path d="M494.785 97.795C496.686 96.3483 498.03 94.9843 498.815 93.703C499.642 92.3803 500.055 90.9337 500.055 89.363C499.518 89.6937 498.898 89.859 498.195 89.859C497.244 89.859 496.459 89.549 495.839 88.929C495.26 88.2677 494.971 87.441 494.971 86.449C494.971 85.333 495.343 84.4237 496.087 83.721C496.872 83.0183 497.906 82.667 499.187 82.667C502.122 82.667 503.589 84.6097 503.589 88.495C503.589 89.5697 503.465 90.541 503.217 91.409C502.969 92.277 502.556 93.145 501.977 94.013C501.44 94.8397 500.696 95.7077 499.745 96.617C498.794 97.485 497.616 98.4357 496.211 99.469L494.785 97.795Z" fill="#1A4F63"/>
<path d="M494.486 134.127H454.434V131.771C455.88 131.729 457.038 131.605 457.906 131.399C458.815 131.192 459.518 130.841 460.014 130.345C460.51 129.849 460.84 129.146 461.006 128.237C461.171 127.327 461.254 126.149 461.254 124.703V95.8107C461.254 94.3641 461.171 93.2067 461.006 92.3387C460.882 91.4294 460.592 90.7267 460.138 90.2307C459.724 89.6934 459.104 89.3421 458.278 89.1767C457.451 88.9701 456.376 88.8254 455.054 88.7427V86.3867H473.902V88.7427C472.579 88.7841 471.504 88.9081 470.678 89.1147C469.892 89.3214 469.272 89.6934 468.818 90.2307C468.404 90.7681 468.115 91.5121 467.95 92.4627C467.826 93.4134 467.764 94.6741 467.764 96.2447V122.967C467.764 124.703 467.929 126.129 468.26 127.245C468.632 128.319 469.231 129.167 470.058 129.787C470.926 130.365 472.062 130.779 473.468 131.027C474.873 131.233 476.65 131.337 478.8 131.337C481.156 131.337 483.14 131.213 484.752 130.965C486.364 130.675 487.707 130.2 488.782 129.539C489.898 128.836 490.766 127.885 491.386 126.687C492.047 125.447 492.605 123.855 493.06 121.913H495.416L494.486 134.127Z" fill="#1A4F63"/>
</svg>
